<?xml version="1.0" encoding="UTF-8" standalone="no"?>
<!-- Created with Inkscape (http://www.inkscape.org/) -->

<svg
   xmlns:dc="http://purl.org/dc/elements/1.1/"
   xmlns:cc="http://creativecommons.org/ns#"
   xmlns:rdf="http://www.w3.org/1999/02/22-rdf-syntax-ns#"
   xmlns:svg="http://www.w3.org/2000/svg"
   xmlns="http://www.w3.org/2000/svg"
   xmlns:sodipodi="http://sodipodi.sourceforge.net/DTD/sodipodi-0.dtd"
   xmlns:inkscape="http://www.inkscape.org/namespaces/inkscape"
   width="643.95349mm"
   height="307.19888mm"
   viewBox="0 0 643.95349 307.19888"
   version="1.1"
   id="svg8"
   inkscape:version="0.92.2 (5c3e80d, 2017-08-06)">
  <defs
     id="defs2">
    <clipPath
       id="clipPath833"
       clipPathUnits="userSpaceOnUse">
      <path
         inkscape:connector-curvature="0"
         id="path831"
         d="M 30,1030 H 1940 V 20 H 30 Z" />
    </clipPath>
    <clipPath
       id="clipPath839"
       clipPathUnits="userSpaceOnUse">
      <path
         inkscape:connector-curvature="0"
         id="path837"
         d="M 0,0 H 1960 V 1060 H 0 Z" />
    </clipPath>
    <clipPath
       id="clipPath845"
       clipPathUnits="userSpaceOnUse">
      <path
         inkscape:connector-curvature="0"
         id="path843"
         d="M 75,79 H 1902 V 950 H 75 Z" />
    </clipPath>
    <clipPath
       id="clipPath849"
       clipPathUnits="userSpaceOnUse">
      <path
         inkscape:connector-curvature="0"
         id="path847"
         d="m 30,79 h 1872 v 921 H 30 Z" />
    </clipPath>
  </defs>
  <sodipodi:namedview
     id="base"
     pagecolor="#ffffff"
     bordercolor="#666666"
     borderopacity="1.0"
     inkscape:pageopacity="0.0"
     inkscape:pageshadow="2"
     inkscape:zoom="0.66"
     inkscape:cx="1216.92"
     inkscape:cy="517.09209"
     inkscape:document-units="mm"
     inkscape:current-layer="layer1"
     showgrid="false"
     inkscape:pagecheckerboard="true"
     fit-margin-top="0"
     fit-margin-left="0"
     fit-margin-right="0"
     fit-margin-bottom="0"
     inkscape:window-width="2400"
     inkscape:window-height="1271"
     inkscape:window-x="2391"
     inkscape:window-y="-9"
     inkscape:window-maximized="1" />
  <metadata
     id="metadata5">
    <rdf:RDF>
      <cc:Work
         rdf:about="">
        <dc:format>image/svg+xml</dc:format>
        <dc:type
           rdf:resource="http://purl.org/dc/dcmitype/StillImage" />
        <dc:title></dc:title>
      </cc:Work>
    </rdf:RDF>
  </metadata>
  <g
     inkscape:label="Layer 1"
     inkscape:groupmode="layer"
     id="layer1"
     transform="translate(342.38745,4.7661059)">
    <g
       style="fill:#ffffff"
       id="g825"
       transform="matrix(0.35277777,0,0,-0.35277777,-369.07862,330.36572)" />
    <g
       id="g851"
       style="fill:#ffffff"
       transform="matrix(0.35277777,0,0,-0.35277777,-369.07862,330.36572)" />
    <g
       id="g867"
       style="fill:#ffffff"
       transform="matrix(0.35277777,0,0,-0.35277777,-369.07862,330.36572)">
      <g
         id="g865"
         clip-path="url(#clipPath849)"
         style="fill:#ffffff">
        <path
           inkscape:connector-curvature="0"
           id="path853"
           style="fill:#ffffff;fill-opacity:1;fill-rule:nonzero;stroke:none"
           d="m 1857.06,716.18 c 9.14,25.1 9.9,51.7 9.9,60.06 0,17.5 -1.54,63.88 -32.7,104.92 -47.9,63.12 -120.14,65.4 -144.46,65.4 h -219.72 v -69.58 c 20,-8.38 47.52,-8.72 62.66,-12.5 16.12,-4.04 26.18,6.04 34.24,14.08 8.06,8.06 32.22,-20.14 40.28,-30.2 8.04,-10.06 22.14,-6.04 36.24,-16.12 14.1,-10.06 30.22,-34.24 44.32,-34.24 14.1,0 26.18,0 20.14,-24.16 -6.04,-24.16 -44.3,-46.32 -58.4,-50.34 -14.12,-4.04 -42.3,-18.14 -70.5,-26.18 -28.2,-8.06 -62.74,-7.92 -86.6,-16.12 -8.26,-3.32 -15.6,-6.62 -22.38,-9.96 V 409.8 h 99.6 v 199.18 h 90.48 L 1765.84,409.8 h 114.8 l -119.36,218.96 c 61.56,19 87.42,65.38 95.78,87.42" />
        <path
           inkscape:connector-curvature="0"
           id="path855"
           style="fill:#ffffff;fill-opacity:1;fill-rule:nonzero;stroke:none"
           d="M 1148.66,949.98 965.5,408.92 h 108.82 l 31.42,105.76 h 203.1 l 31.42,-105.76 h 108.06 l -184.7,541.06 z m 59.02,-97.34 74.34,-249.06 h -149.46 l 75.12,249.06" />
        <path
           inkscape:connector-curvature="0"
           id="path857"
           style="fill:#ffffff;fill-opacity:1;fill-rule:nonzero;stroke:none"
           d="m 478.6,815.02 c 0,44.86 -22.8,73.76 -34.2,85.92 -34.98,37.26 -79.08,41.8 -95.8,43.34 -26.6,2.26 -53.98,2.26 -80.6,2.26 H 75.66 V 409.8 h 210.6 c 51.7,0 99.6,-2.28 146.72,24.32 47.9,27.36 70.72,73.76 70.72,127.74 0,77.54 -45.62,113.28 -72.98,127.72 -17.5,9.88 -34.22,12.92 -41.06,14.44 15.2,3.04 27.36,6.08 40.3,14.44 44.84,28.14 48.64,81.36 48.64,96.56 M 375.22,798.3 c 0,-22.8 -10.66,-35.74 -16.74,-41.82 -18.24,-19.76 -42.58,-22.8 -67.66,-24.32 -27.38,-1.52 -53.98,-1.52 -80.6,-1.52 h -34.96 v 133.8 h 78.3 c 35.74,0 82.88,3.04 108.72,-28.88 11.42,-14.44 12.94,-31.18 12.94,-37.26 m 25.84,-227.34 c 0,-25.84 -9.88,-39.52 -16.72,-47.12 -25.08,-29.66 -63.1,-27.38 -96.56,-27.38 H 175.26 v 158.9 h 56.26 c 63.1,0 98.84,0.76 126.2,-12.92 38.78,-19.76 43.34,-56.26 43.34,-71.48" />
        <path
           inkscape:connector-curvature="0"
           id="path859"
           style="fill:#ffffff;fill-opacity:1;fill-rule:nonzero;stroke:none"
           d="M 540.18,946.56 V 409.78 h 400.66 v 90.48 H 639.02 v 143.7 h 259.26 v 86.68 H 639.02 v 126.2 h 282.82 v 89.72 H 540.18" />
        <path
           inkscape:connector-curvature="0"
           id="path861"
           style="fill:#ffffff;fill-opacity:1;fill-rule:nonzero;stroke:none"
           d="m 139.06,165.56 v 11.32 H 77.94 V 81.6 h 12.68 v 44.82 h 45.06 v 11.04 H 90.62 v 28.1 z m 107.02,-35.5 c 0,20.24 -9.16,38.2 -29,45.88 -5.94,2.28 -12.42,3.36 -18.9,3.36 -13.24,0 -27.14,-4.84 -36.18,-14.96 -11.58,-13.1 -11.86,-29.58 -11.86,-34.96 0,-20.66 8.5,-32.14 14.84,-38.08 12.28,-11.46 26.98,-12.12 32.8,-12.12 21.58,0 33.06,10.64 38.32,17.66 9.58,12.96 9.98,28.22 9.98,33.22 m -13.76,0 C 232.46,107.24 222.06,96.16 212.9,92 c -6.08,-2.72 -12.02,-2.86 -14.44,-2.86 -6.5,0 -10.4,1.22 -12.98,2.16 -1.76,0.7 -5.26,2.16 -9.18,5.54 -1.08,0.94 -3.78,3.66 -6.06,7.16 -2.58,4.18 -6.34,12.68 -6.34,25.24 0,8.78 2.02,19.18 7.28,26.72 3.64,5.28 11.46,12.98 27,13.1 5.12,0 17.94,-0.54 26.72,-12.56 7.42,-10.12 7.42,-23.08 7.42,-26.44 M 344.2,81.6 317.46,122.9 c 5.14,0.94 7.44,1.88 9.72,3.1 12.16,6.2 12.7,19.16 12.7,23.08 0,9.44 -3.24,15.12 -5.82,18.22 -4.04,4.86 -10.24,9.04 -23.48,9.58 -2.96,0.12 -6.06,0 -9.04,0 H 266.06 V 81.6 h 12.4 v 40.5 h 24.56 l 26.06,-40.5 z m -16.88,67.48 c 0,-3.64 -0.8,-6.88 -2.96,-9.86 -4.86,-6.62 -13.36,-6.48 -20.52,-6.48 h -25.38 v 33.62 h 24.7 c 5.68,0 11.62,0.28 16.6,-2.7 7.3,-4.46 7.56,-11.88 7.56,-14.58 M 473.08,81.6 438.4,176.88 H 425.16 L 388.88,81.6 h 13.48 l 10.66,29.16 h 36.32 L 459.72,81.6 Z m -27.54,39.8 h -28.46 l 14.58,39.82 z m 131.98,-5.26 -13.76,1.62 c -1.22,-6.2 -2.42,-9.32 -3.92,-12.14 -5.26,-9.86 -14.16,-13.5 -17.94,-14.58 -4.32,-1.22 -8.1,-1.22 -9.72,-1.22 -6.88,0 -11.46,1.48 -13.9,2.44 -9.3,3.9 -20.24,14.7 -20.24,37.66 0,5.26 0.14,28.08 20.1,36.56 5.82,2.46 11.62,2.72 13.9,2.72 14.98,0 23.08,-7.96 26.46,-12.7 1.22,-1.76 2.7,-4.32 4.32,-8.9 l 12.82,2.56 c -2.02,5.54 -4.44,10.4 -8.36,14.98 -11.74,13.76 -29.7,14.16 -35.1,14.16 -30.22,0 -48.16,-20.36 -48.16,-50.06 0,-20.8 8.62,-32.66 14.96,-38.62 5.14,-4.7 14.72,-11.44 31.58,-11.44 2.56,0 8.5,0.14 15.26,2.16 18.76,5.52 26.98,21.04 29.42,27.24 1.34,3.38 2.02,6.22 2.28,7.56 M 668.76,81.6 634.08,176.88 H 620.86 L 584.56,81.6 h 13.5 l 10.64,29.16 h 36.32 L 655.4,81.6 Z m -27.52,39.8 h -28.48 l 14.58,39.82 z m 120.64,7.7 c 0,21.48 -7.56,32.68 -14.84,38.88 -10.24,8.62 -20.78,8.9 -25.64,8.9 H 683.62 V 81.6 h 24.14 c 2.98,-0.12 6.08,0 9.18,0 8.36,0 11.74,0.42 15.94,1.62 20.24,5.56 25.76,22.72 27.38,29.48 1.22,5.14 1.62,11.08 1.62,16.36 z m -12.94,0.08 c 0,-14.46 -3.92,-22.84 -8.24,-27.7 -7.28,-8.42 -17.96,-8.82 -21.46,-8.82 H 696.7 v 73.04 h 14.98 c 8.92,0 12.54,-0.14 17,-1.5 1.62,-0.4 4.6,-1.34 8.12,-3.92 1.74,-1.2 3.22,-2.7 4.7,-4.46 5.82,-7.14 7.44,-17.82 7.44,-26.58 z M 849.2,81.6 v 11.06 h -55.06 v 32.54 h 46.42 v 11.04 h -46.42 v 29.46 h 53.44 v 11.18 H 782 V 81.6 Z m 107.02,0 v 95.28 H 939.76 L 910.34,98.74 881.18,176.88 H 864.72 V 81.6 h 12.4 l -1.34,78.68 29.56,-78.68 h 9.86 l 30.1,79.9 -1.76,-79.9 z m 20.66,0 h 12.8 v 95.26 h -12.8 z m 124.68,34.54 -13.76,1.62 c -1.22,-6.2 -2.44,-9.32 -3.92,-12.14 -5.28,-9.86 -14.18,-13.5 -17.96,-14.58 -4.3,-1.22 -8.08,-1.22 -9.7,-1.22 -6.9,0 -11.48,1.48 -13.9,2.44 -9.32,3.9 -20.26,14.7 -20.26,37.66 0,5.26 0.14,28.08 20.12,36.56 5.8,2.46 11.6,2.72 13.9,2.72 14.98,0 23.06,-7.96 26.44,-12.7 1.22,-1.76 2.7,-4.32 4.32,-8.9 l 12.82,2.56 c -2.02,5.54 -4.44,10.4 -8.36,14.98 -11.74,13.76 -29.68,14.16 -35.08,14.16 -30.24,0 -48.18,-20.36 -48.18,-50.06 0,-20.8 8.64,-32.66 14.98,-38.62 5.12,-4.7 14.7,-11.44 31.58,-11.44 2.56,0 8.48,0.14 15.24,2.16 18.76,5.52 27,21.04 29.42,27.24 1.36,3.38 2.02,6.22 2.3,7.56 m 133.6,-34.54 -26.72,41.3 c 5.14,0.94 7.42,1.88 9.72,3.1 12.14,6.2 12.68,19.16 12.68,23.08 0,9.44 -3.24,15.12 -5.8,18.22 -4.04,4.86 -10.26,9.04 -23.48,9.58 -2.96,0.12 -6.08,0 -9.04,0 h -35.48 V 81.6 h 12.4 v 40.5 H 1194 l 26.04,-40.5 z m -16.86,67.48 c 0,-3.64 -0.82,-6.88 -2.98,-9.86 -4.86,-6.62 -13.36,-6.48 -20.5,-6.48 h -25.38 v 33.62 h 24.7 c 5.66,0 11.6,0.28 16.6,-2.7 7.28,-4.46 7.56,-11.88 7.56,-14.58 m 98.78,-67.48 v 11.06 h -55.06 v 32.54 h 46.42 v 11.04 h -46.42 v 29.46 h 53.44 v 11.18 h -65.58 V 81.6 Z m 89.74,27.38 c 0,6.76 -2.14,10.96 -3.5,13.24 -5.8,9.72 -17.4,12.28 -20.38,12.96 -2.42,0.66 -4.98,1.36 -7.4,1.9 l -10.54,2.56 c -5.52,1.34 -12.96,2.82 -16.6,7.82 -2.02,2.7 -2.28,5.66 -2.28,7.02 0,3.1 1.2,6.34 3.24,8.64 4.16,5 12.4,6.34 18.48,6.34 15.66,0 21.72,-7.82 23.62,-14.58 0.54,-1.88 0.8,-3.76 0.94,-5.66 l 12.8,0.82 c -0.8,4.84 -1.88,9.3 -4.44,13.62 -1.08,1.9 -3.24,5.14 -7.68,8.5 -7.42,5.66 -16.34,7.14 -25.52,7.14 -3.9,0 -15.78,0.26 -25.5,-7.82 -5.68,-4.7 -9.04,-11.06 -9.04,-18.62 0,-5.66 1.48,-14.3 12.96,-20.52 6.34,-3.5 14.04,-5.12 20.9,-6.62 l 8.24,-1.74 c 4.46,-0.96 9.46,-2.02 13.24,-5 2.16,-1.76 4.86,-4.46 4.86,-10.8 0,-13.1 -10.94,-16.88 -14.98,-17.96 -3.78,-1.08 -7.44,-1.08 -8.78,-1.08 -11.2,0 -17.56,4.06 -20.92,7.56 -6.08,6.36 -6.34,14.32 -6.48,17.16 l -13.62,-1.76 c 0.26,-2.98 0.94,-11.6 6.6,-19.18 2.02,-2.7 4.72,-5.24 7.7,-7.14 9.98,-6.46 22.94,-6.6 26.04,-6.6 16.2,0 24.84,5.12 30.08,10.24 7.42,7.28 7.96,15.78 7.96,19.56 M 1494,81.6 v 11.06 h -55.06 v 32.54 h 46.42 v 11.04 h -46.42 v 29.46 h 53.44 v 11.18 H 1426.8 V 81.6 Z m 91.92,0 -34.68,95.28 H 1538 L 1501.7,81.6 h 13.5 l 10.66,29.16 h 36.3 l 10.4,-29.16 z m -27.52,39.8 h -28.5 l 14.6,39.82 z m 120.48,-39.8 -26.7,41.3 c 5.12,0.94 7.42,1.88 9.7,3.1 12.16,6.2 12.7,19.16 12.7,23.08 0,9.44 -3.24,15.12 -5.8,18.22 -4.06,4.86 -10.26,9.04 -23.48,9.58 -2.98,0.12 -6.08,0 -9.06,0 h -35.46 V 81.6 h 12.4 v 40.5 h 24.56 l 26.04,-40.5 z m -16.86,67.48 c 0,-3.64 -0.82,-6.88 -2.96,-9.86 -4.86,-6.62 -13.36,-6.48 -20.52,-6.48 h -25.36 v 33.62 h 24.68 c 5.68,0 11.6,0.28 16.6,-2.7 7.28,-4.46 7.56,-11.88 7.56,-14.58 m 121.06,-32.94 -13.78,1.62 c -1.2,-6.2 -2.42,-9.32 -3.9,-12.14 -5.26,-9.86 -14.18,-13.5 -17.94,-14.58 -4.32,-1.22 -8.12,-1.22 -9.74,-1.22 -6.86,0 -11.46,1.48 -13.9,2.44 -9.3,3.9 -20.22,14.7 -20.22,37.66 0,5.26 0.12,28.08 20.1,36.56 5.8,2.46 11.6,2.72 13.9,2.72 14.98,0 23.08,-7.96 26.46,-12.7 1.2,-1.76 2.68,-4.32 4.3,-8.9 l 12.84,2.56 c -2.04,5.54 -4.46,10.4 -8.38,14.98 -11.74,13.76 -29.68,14.16 -35.1,14.16 -30.22,0 -48.14,-20.36 -48.14,-50.06 0,-20.8 8.62,-32.66 14.96,-38.62 5.12,-4.7 14.7,-11.44 31.56,-11.44 2.58,0 8.52,0.14 15.26,2.16 18.76,5.52 27,21.04 29.42,27.24 1.34,3.38 2.02,6.22 2.3,7.56 M 1876.6,81.6 v 95.28 h -12.8 v -40.5 h -51.84 v 40.5 h -12.54 V 81.6 h 12.54 v 43.6 h 51.84 V 81.6 h 12.8" />
        <path
           inkscape:connector-curvature="0"
           id="path863"
           style="fill:#ffffff;fill-opacity:1;fill-rule:nonzero;stroke:none"
           d="m 153.76,247.52 c 0,11.9 -5.78,17.82 -9.84,20.52 -2.42,1.62 -4.84,2.56 -7.54,3.38 1.48,0.4 2.42,0.8 2.96,1.06 0.8,0.42 3.1,1.76 5.12,3.64 4.46,4.34 6.48,9.72 6.48,15.94 0,7.02 -2.56,13.1 -7.82,17.54 -6.06,5.26 -12.82,6.88 -20.52,6.88 H 77.8 v -95.26 h 37.24 c 10.82,0 14.86,-0.14 20.52,1.62 6.08,1.76 18.08,7.54 18.2,24.68 m -16.16,43.86 c 0,-9.84 -6.9,-13.22 -10.4,-14.04 -2.96,-0.8 -9.46,-0.94 -17.42,-0.94 H 89.8 v 28.9 h 27.14 c 7.96,0 10.92,-0.14 14.72,-2.42 5.8,-3.52 5.94,-8.92 5.94,-11.5 m 3.08,-42.9 c 0,-8.12 -3.5,-11.62 -6.32,-13.38 -2.04,-1.22 -4.06,-1.76 -4.88,-1.88 -1.88,-0.54 -6.2,-0.82 -11.46,-0.82 H 89.8 v 33.22 h 23.36 c 7.82,0 10.66,0.14 14.84,-0.82 7.3,-1.62 10.4,-6.88 11.48,-9.44 1.2,-2.84 1.2,-5.68 1.2,-6.88 m 28.64,-27.26 h 12.78 v 95.26 h -12.78 z m 110.5,0 -26.72,41.3 c 5.12,0.94 7.42,1.88 9.72,3.1 12.14,6.18 12.68,19.16 12.68,23.06 0,9.46 -3.24,15.14 -5.8,18.24 -4.06,4.84 -10.26,9.02 -23.5,9.56 -2.96,0.14 -6.06,0 -9.02,0 h -35.5 v -95.26 h 12.4 v 40.48 h 24.58 l 26.04,-40.48 z m -16.88,67.46 c 0,-3.64 -0.8,-6.88 -2.96,-9.84 -4.86,-6.62 -13.36,-6.5 -20.52,-6.5 h -25.38 v 33.62 h 24.72 c 5.66,0 11.6,0.28 16.6,-2.7 7.28,-4.44 7.54,-11.88 7.54,-14.58 m 118.9,-67.46 v 95.26 h -16.46 l -29.42,-78.12 -29.16,78.12 h -16.44 v -95.26 h 12.4 l -1.34,78.66 29.56,-78.66 h 9.84 l 30.1,79.88 -1.76,-79.88 z m 17.96,0 h 12.82 v 95.26 H 399.8 Z m 106.88,0 v 95.26 h -11.46 l 0.54,-76.36 -51.58,76.36 H 432.2 v -95.26 h 11.98 l -1.2,77.46 52.24,-77.46 z m 110.52,0 v 50.32 H 572.96 V 260.9 h 33.18 c 0.14,-5 -0.12,-16.74 -11.86,-24.84 -8.5,-5.82 -17.56,-6.22 -21.06,-6.22 -16.34,0 -23.9,8.1 -27.82,13.5 -7.14,10.14 -7.42,21.6 -7.42,25.76 0,14.74 5.66,23.78 9.72,28.36 3.78,4.32 11.34,10.94 25.78,10.94 3.52,0 16.2,-0.4 24.44,-9.86 2.98,-3.24 4.72,-6.74 6.06,-10.66 l 13.22,3.38 c -1.22,2.56 -2.42,4.86 -3.9,7.16 -7.7,11.6 -17.82,16.04 -22.68,17.66 -7.54,2.7 -14.7,2.82 -17.54,2.82 -20.12,0 -30.64,-9.02 -36.18,-15.08 -12.12,-13.64 -12.94,-29.98 -12.94,-36.18 0,-27.12 16.06,-39.7 25.64,-44.26 6.88,-3.24 14.04,-4.6 21.72,-4.6 16.34,0 26.32,6.34 31.06,11.06 2.14,2.02 2.96,3.64 3.76,4.72 v -13.34 z m 97.44,0 v 95.26 h -12.8 V 276 H 650 v 40.48 H 637.46 V 221.22 H 650 v 43.58 h 51.84 v -43.58 z m 96.1,0 -34.68,95.26 h -13.24 l -36.3,-95.26 h 13.5 l 10.66,29.14 h 36.3 l 10.4,-29.14 z m -27.54,39.8 h -28.48 l 14.58,39.8 z m 129.82,-39.8 v 95.26 H 896.58 L 867.14,238.36 838,316.48 h -16.46 v -95.26 h 12.4 l -1.34,78.66 29.56,-78.66 h 9.86 l 30.1,79.88 -1.76,-79.88 z m 123.34,0 v 11.04 h -55.04 v 32.54 h 46.42 v 11.06 h -46.42 v 29.44 h 53.42 v 11.18 h -65.56 v -95.26 z m 88.68,0 v 95.26 h -11.46 l 0.54,-76.36 -51.56,76.36 h -12 v -95.26 h 12 l -1.22,77.46 52.24,-77.46 z m 90.44,95.26 h -13.52 l -26.18,-79.6 -25.22,79.6 h -13.5 l 32.26,-95.26 h 12.54 z m 10.66,-95.26 h 12.8 v 95.26 h -12.8 z m 110.5,0 -26.72,41.3 c 5.14,0.94 7.44,1.88 9.72,3.1 12.16,6.18 12.7,19.16 12.7,23.06 0,9.46 -3.24,15.14 -5.82,18.24 -4.04,4.84 -10.24,9.02 -23.48,9.56 -2.96,0.14 -6.08,0 -9.04,0 h -35.48 v -95.26 h 12.4 v 40.48 h 24.56 l 26.04,-40.48 z m -16.86,67.46 c 0,-3.64 -0.82,-6.88 -2.96,-9.84 -4.88,-6.62 -13.38,-6.5 -20.52,-6.5 h -25.38 v 33.62 h 24.7 c 5.68,0 11.6,0.28 16.6,-2.7 7.28,-4.44 7.56,-11.88 7.56,-14.58 m 121.04,-19.02 c 0,20.26 -9.16,38.2 -29,45.88 -5.92,2.28 -12.42,3.36 -18.88,3.36 -13.24,0 -27.14,-4.84 -36.18,-14.96 -11.6,-13.1 -11.86,-29.54 -11.86,-34.96 0,-20.64 8.48,-32.12 14.82,-38.06 12.28,-11.46 27,-12.14 32.8,-12.14 21.6,0 33.08,10.66 38.34,17.68 9.56,12.96 9.96,28.2 9.96,33.2 m -13.74,0 c 0.14,-22.82 -10.26,-33.88 -19.44,-38.06 -6.08,-2.7 -12.02,-2.84 -14.44,-2.84 -6.48,0 -10.4,1.22 -12.96,2.16 -1.74,0.68 -5.26,2.16 -9.18,5.54 -1.08,0.94 -3.78,3.64 -6.08,7.14 -2.56,4.2 -6.34,12.7 -6.34,25.26 0,8.76 2.04,19.16 7.28,26.72 3.66,5.26 11.48,12.96 27.02,13.08 5.12,0 17.94,-0.54 26.72,-12.54 7.42,-10.14 7.42,-23.08 7.42,-26.46 m 105.52,-48.44 v 95.26 h -11.46 l 0.54,-76.36 -51.56,76.36 h -12 v -95.26 h 12 l -1.22,77.46 52.24,-77.46 z m 111.2,0 v 95.26 h -16.44 l -29.44,-78.12 -29.14,78.12 h -16.46 v -95.26 h 12.4 l -1.36,78.66 29.56,-78.66 h 9.88 l 30.1,79.88 -1.76,-79.88 z m 86.78,0 v 11.04 h -55.06 v 32.54 h 46.42 v 11.06 h -46.42 v 29.44 h 53.44 v 11.18 h -65.56 v -95.26 z m 88.66,0 v 95.26 h -11.44 l 0.54,-76.36 -51.58,76.36 h -12 v -95.26 h 12 l -1.22,77.46 52.26,-77.46 z m 81.8,84.2 v 11.06 h -69.78 v -11.06 h 28.62 v -84.2 h 12.66 v 84.2 h 28.5" />
      </g>
    </g>
  </g>
</svg>
