<?xml version="1.0" encoding="UTF-8"?>
<svg width="73.025mm" height="73.025mm" version="1.1" viewBox="0 0 258.75 258.75" xmlns="http://www.w3.org/2000/svg" xmlns:cc="http://creativecommons.org/ns#" xmlns:dc="http://purl.org/dc/elements/1.1/" xmlns:rdf="http://www.w3.org/1999/02/22-rdf-syntax-ns#">
<metadata>
<rdf:RDF>
<cc:Work rdf:about="">
<dc:format>image/svg+xml</dc:format>
<dc:type rdf:resource="http://purl.org/dc/dcmitype/StillImage"/>
<dc:title/>
</cc:Work>
</rdf:RDF>
</metadata>
<g transform="translate(-221.25 -461.74)" stroke="#574b90">
<ellipse cx="350.62" cy="591.09" rx="127.45" ry="127.48" fill="#fff" stroke-width="3.8493"/>
<path d="m318.27 648.12c-0.18936-0.3064 1.3654-2.4911 3.455-4.855 2.0896-2.3638 4.4392-5.4229 5.2213-6.7979 1.913-3.363 3.1874-11.225 2.2246-13.724-0.76276-1.9799-5.564-8.8774-16.412-23.578-7.732-10.478-7.1614-10.118-17.67-11.132-10.54-1.017-12.575-1.517-24.194-5.9463-14.872-5.6693-21.396-10.244-23.521-16.494-1.6615-4.8857-0.56934-6.7933 4.2138-7.3596 3.1185-0.36922 3.7756-0.76492 8.6849-5.2301 4.3546-3.9606 5.9956-5.0379 9.1121-5.9815 3.2856-0.99479 4.4492-1.8096 8.5813-6.0089 3.8573-3.92 5.1425-4.858 6.6563-4.858 1.0318 0 2.2416 0.44042 2.6883 0.97871 1.2647 1.5238 4.0829 2.7713 6.2608 2.7713 4.7236 0 15.573-2.0882 19.955-3.8408 6.1832-2.473 13.846-4.2744 18.205-4.2798 2.0296-2e-3 7.184 0.94729 12.188 2.2458l8.6704 2.2502 19.375-1.343c25.868-1.7931 34.591-1.8785 39.062-0.38249 13.393 4.4804 25.088 14.384 30.131 25.515 3.0288 6.6853 3.3185 19.556 0.72789 32.335-1.9959 9.8454-2.0611 13.758-0.55394 33.23 0.56762 7.3331 0.94219 15.442 0.83238 18.02l-0.19965 4.6875h-14.323c-9.6037 0-14.396-0.22-14.545-0.6677-0.45289-1.3587 2.7512-4.9866 6.0219-6.8185 1.8548-1.0388 3.4893-2.2431 3.6323-2.6762 0.14301-0.43309-1.4287-2.5346-3.4926-4.67-3.4932-3.6142-3.8732-3.8402-5.4972-3.269-1.659 0.58346-1.7825 0.90449-2.5168 6.545-0.42472 3.2623-1.1516 7.1971-1.6153 8.744l-0.84308 2.8125-14.617 0.16805c-8.5544 0.0983-14.861-0.0761-15.206-0.4206-1.0995-1.0995 1.95-4.2196 6.42-6.5686 4.8754-2.5619 5.3656-3.6118 2.8082-6.0143-2.6057-2.4479-7.6689-10.838-9.6582-16.004-2.1988-5.7103-4.3557-8.1341-9.3714-10.531-4.4404-2.1223-5.368-1.7024-5.9724 2.7033-0.94166 6.8646-3.5066 13.438-8.2298 21.092-1.5612 2.5297-3.7673 7.0692-4.9026 10.088l-2.0641 5.4883-14.688 0.16746c-8.1305 0.0927-14.842-0.0813-15.033-0.38964z" fill="#574b90" stroke-width="2.8753"/>
</g>
</svg>
