<svg version="1" xmlns="http://www.w3.org/2000/svg" width="933.333" height="933.333" viewBox="0 0 700.000000 700.000000"><path d="M326.9.4c-.2.2-4.1.6-8.7 1-9.8.7-26.9 3.1-36.7 5.2-3.8.9-8.1 1.8-9.5 2-13.2 2.5-41 11.5-58.9 19.1C158.3 51.1 108.5 89.5 73 136c-1.9 2.5-3.7 4.7-4 5-.3.3-2 2.5-3.6 5-1.7 2.5-4.6 6.8-6.5 9.5-1.9 2.8-3.9 6-4.6 7-22.9 37-39 76.6-46.8 115-.8 3.8-1.6 7.9-1.8 9-.8 3.8-2.6 15.6-3.2 21.1-1.6 15.5-2 23.5-2 42.9s.7 32.9 2 40.6c.2 1.3.6 4.6.9 7.4.9 7.8 2.3 15.6 5.1 28.5 3 14.1 11 39.3 17.3 55.1 5 12.5 15.6 33.7 22.6 45.3 3.6 6 6.6 11.1 6.6 11.3 0 .2.5.9 1 1.6.6.7 4 5.5 7.6 10.7 6.3 9 20.5 27.1 24.9 31.6 21.4 22.4 28.7 29.2 43.4 41.1 10 8 38 27.3 39.7 27.3.4 0 1.5.6 2.3 1.4 3.1 2.7 30.9 16.4 44.8 22 16.4 6.6 40.8 14.3 54.6 17.2 10.1 2.1 21.6 4.1 27.7 4.9 2.5.3 5.6.7 6.9 1 13.5 2.6 70 2.6 83.9 0 1.6-.3 10.4-1.5 14.7-2 20.7-2.7 58.7-13.9 83.8-24.9 34.4-15 69.5-37.9 96.1-62.6 8.3-7.7 23.7-23.6 28.1-29 2.1-2.5 4-4.7 4.4-5 1.2-.9 13.7-17.4 19.3-25.5 24.2-34.9 45.3-83 53.4-122 1.6-7.9 5.4-30.1 5.9-35 .4-3.3.9-7.1 1.1-8.5.9-5 1.1-51.8.4-60.5-1-10.2-1.9-18.8-2.5-22.5-.5-3-2.4-14.3-3.1-18.5-2.4-13.7-14-52.6-17.9-60.2-.8-1.6-1.5-3.4-1.5-4.1 0-.7-.4-2-1-3-.5-.9-3.1-6.4-5.8-12.2-17-36.9-42.4-72.7-72.1-101.9-8.9-8.7-16.6-15.4-30.6-27-11.7-9.6-52.4-35.1-56-35.1-.8 0-1.6-.4-1.9-.9-.9-1.4-24.1-11.5-37.9-16.5-11.8-4.3-34.3-10.9-41-12-1.5-.3-3.5-.7-4.5-1-.9-.3-3-.8-4.7-1.1-11.6-2-20.9-3.5-26-4-3.3-.4-7.1-.9-8.5-1.2-2.9-.6-56.5-1.4-57.1-.9zm52.6 11c1.7.3 5.7.8 9 1.1 74.5 7.8 147.3 43 201.8 97.8 32.1 32.3 56 67.9 73.5 109.7 9.1 21.5 18.1 52.7 20.8 72 .2 1.9.7 4.5.9 5.7.3 1.2.8 4.6 1.1 7.5.3 2.9.7 6.4 1 7.8 2.2 12.5 2.2 63.4 0 74.5-.2 1.1-.7 4.5-1 7.5-.4 3-1.1 7.7-1.6 10.5-.5 2.7-1.1 6.3-1.3 8-.3 1.6-1.5 7-2.7 12-1.2 4.9-2.3 9.9-2.5 10.9-.3 1-.9 3.3-1.5 5.1-.6 1.8-1.2 4.1-1.5 5.1-.8 3.8-8.3 25.2-11.9 33.9-6.2 14.8-16.1 33.8-27.1 51.8-12.9 21.2-37.2 49.8-58.5 69.2-10 9-12.4 11-22.5 18.7-31.8 24.1-67.6 42.6-104 53.9-12.4 3.8-27.2 7.6-33 8.5-2.2.3-4.2.7-4.5.9-.4.2-2.9.7-5.6 1.1-2.7.3-5.6.8-6.4.9-.9.2-4.3.6-7.5 1-3.3.4-6.9.9-8 1.1-4.6.9-23 1.8-37.5 1.7-28.8-.1-50-2.5-76.5-8.8-18.2-4.3-22.2-5.5-39.5-11.8-14.2-5.2-39-16.4-46-20.7-.8-.5-5.7-3.5-10.9-6.5-15.1-9-35.7-23.5-44.1-31.1-1.4-1.2-5-4.4-8-7.1-9.9-8.7-23.9-23.2-34-34.9-31.5-36.9-57.2-86.9-69.2-134.9-2.5-10.1-6.6-31.4-7.3-38-.4-3.3-.9-7.1-1.1-8.5-2.3-14.5-2.3-51.3 0-74 2.4-24.5 9.5-54.8 18.6-79.5C45.9 193 65.4 160.2 95.4 125c11.3-13.3 39.5-38.7 57-51.5 18.3-13.4 50.8-30.9 73.6-39.8 17.8-6.9 43-14.4 58.5-17.2 15.9-2.9 26.6-4.2 40-5.1 5.5-.4 10.1-.8 10.3-.9.5-.5 41.7.4 44.7.9z"/><path d="M296.8 185.5c-.2.1-3.3.5-7 .9-8 .7-26.1 5.3-37.8 9.6-10 3.7-8.7 3.3-21.9 6.4-10.3 2.4-14.1 3.1-25.1 4.5-11.2 1.4-17.1 0-23.4-5.4-2.9-2.5-8.8-4.7-10.9-4-.7.2-2.4.6-3.8.9-1.6.3-8.3 5.9-15.9 13-11.3 10.7-14 12.7-19.3 14.6-12.2 4.3-15.5 6.4-29.9 19-11.3 9.9-14.1 11.5-21 12.3-6.4.8-12.4 4.1-14.4 7.9-2.4 4.6-1.4 13 2.6 21.2 6.4 13.6 21 24.7 47.3 36 2 .9 5.2 2.2 7 3 10.5 4.6 37 13.9 43.1 15.2 12.3 2.7 17.2 3.4 33.6 4.9 18.3 1.7 21.9 2.8 27.4 7.6 4.2 3.6 20.6 25.3 42.8 56.4 14.7 20.6 18.1 26.4 18.6 31.4.6 6.2-2.4 21.3-5.3 27.6-2 4.1-15 21.5-17.5 23.5-2.2 1.6-7 9.7-7 11.6 0 5.2 1 5.4 45.1 5.4 31 0 40.9-.3 41.6-1.3.5-.6 1.7-3.7 2.7-6.7 1.1-3 2.2-6 2.6-6.5.4-.6 1.3-2.8 2-5 1.5-4.8 8.2-18.1 14.5-29 9.4-16.4 17.6-36.3 19-47 1.4-10.2 2.7-14.5 4.2-14.5 1.9 0 13.9 5.7 16.5 7.9 6.7 5.4 9.9 10.2 14.8 21.6 6.5 15.3 18.3 35 26.3 44 2 2.2 3.3 4.3 3.1 4.7-.3.4-2.6 2-5.2 3.4-15.1 8.5-22.6 15.2-23.8 21.2-.5 2.4-.1 3.3 2.3 5 2.9 2.1 4 2.1 44.1 2.2 22.9 0 41.3-.4 41.6-.8.8-1.3 5.3-19.9 6.1-24.7 2.8-19.2 3.4-22.8 3.7-23 .2-.1 1.3-.5 2.4-.9 1.8-.5 3.5.8 9.8 7.5 4.2 4.4 7.6 8.4 7.6 8.9s-3.1 2.9-6.8 5.4c-17.4 11.5-23.3 23.9-12.5 26.1 2.1.5 21 .9 42.1 1l38.2.3.1-6.7c.3-16.8.2-24.5-.4-36.6-1.1-19.1-1.7-28.5-2.2-33-1.6-14.6-2.3-44.4-1.3-55.5.7-6.6 3.6-24.9 4.3-26 .1-.3.6-3.4 1-7s.8-6.7 1-7c.7-1.1 1.8-17.6 1.9-27.5.3-20.8-2.2-35-8.5-47.7-12-24.6-33.8-45.5-62.9-60.4-3-1.5-5.7-2.9-6-2.9-.3-.1-1.8-.7-3.5-1.4-6.8-2.9-14.2-5.2-19-5.8-9.4-1.3-43.7-.7-72 1.2-2.7.2-9.5.6-15 .9-5.5.3-12.9.8-16.5 1.1-3.6.3-9.2.7-12.5.9-5.9.4-25.1 1.6-31 2-1.6.2-11.5-1.9-22-4.5-19-4.8-38.5-8.4-39.7-7.4z"/></svg>